<?xml version="1.0" encoding="iso-8859-1"?>
<!-- Generator: Adobe Illustrator 18.0.0, SVG Export Plug-In . SVG Version: 6.00 Build 0)  -->
<!DOCTYPE svg PUBLIC "-//W3C//DTD SVG 1.1//EN" "http://www.w3.org/Graphics/SVG/1.1/DTD/svg11.dtd">
<svg version="1.1" id="Capa_1" xmlns="http://www.w3.org/2000/svg" xmlns:xlink="http://www.w3.org/1999/xlink" x="0px" y="0px"
	 viewBox="0 0 466.342 466.342" style="enable-background:new 0 0 466.342 466.342;" xml:space="preserve" fill="white">
<g>
	<path d="M343.241,299.556V59.677C343.241,26.771,316.471,0,283.564,0h-30.627c-27.034,0-49.913,18.074-57.223,42.77h-82.871
		c-8.284,0-15,6.716-15,15s6.716,15,15,15h80.417v36.111h-80.417c-8.284,0-15,6.716-15,15s6.716,15,15,15h80.417v36.111h-80.417
		c-8.284,0-15,6.716-15,15s6.716,15,15,15h80.417v94.566c-16.334,18.355-25.257,41.743-25.257,66.536
		c0,27.042,10.604,52.392,29.859,71.381c18.911,18.649,43.85,28.869,70.372,28.868c0.478,0,0.96-0.003,1.439-0.01
		c26.063-0.363,50.659-10.765,69.257-29.292c18.599-18.527,29.094-43.084,29.553-69.146
		C368.932,342.413,360.011,318.387,343.241,299.556z M218.816,316.184c2.844-2.817,4.443-6.654,4.443-10.657V59.677
		C223.26,43.313,236.573,30,252.938,30h30.627c16.364,0,29.677,13.313,29.677,29.677v245.85c0,4.003,1.6,7.84,4.444,10.657
		c13.756,13.626,21.144,31.803,20.802,51.183c-0.659,37.507-31.717,68.446-69.231,68.968c-18.961,0.275-36.839-6.917-50.328-20.221
		c-13.493-13.307-20.925-31.071-20.925-50.021C198.003,347.204,205.395,329.479,218.816,316.184z"/>
	<path d="M268.251,395.931c16.479,0,29.837-13.359,29.837-29.837c0-11.008-5.966-20.617-14.837-25.789v-96.134
		c0-8.284-6.716-15-15-15s-15,6.716-15,15v96.134c-8.871,5.171-14.837,14.78-14.837,25.789
		C238.414,382.573,251.772,395.931,268.251,395.931z"/>
</g>
<g>
</g>
<g>
</g>
<g>
</g>
<g>
</g>
<g>
</g>
<g>
</g>
<g>
</g>
<g>
</g>
<g>
</g>
<g>
</g>
<g>
</g>
<g>
</g>
<g>
</g>
<g>
</g>
<g>
</g>
</svg>
